<mxfile host="app.diagrams.net" modified="2024-01-14T07:50:39.789Z" agent="Mozilla/5.0 (X11; Linux x86_64) AppleWebKit/537.36 (KHTML, like Gecko) Chrome/120.0.0.0 Safari/537.36" version="22.1.18" etag="ERBOgrw4Wl8Z8mLQiW1C" type="github">
  <diagram name="Page-1" id="scAGZnu3PGEpNTEuK6jA">
    <mxGraphModel>
      <root>
        <mxCell id="0" />
        <mxCell id="1" parent="0" />
      </root>
    </mxGraphModel>
  </diagram>
</mxfile>
